PathFileType	4	(X/Y/Z)	C:/Users/beibeiliu/ov580/test_trc\sequence.10_training_dense_left.trc
DataRate	CameraRate	NumFrames	NumMarkers	Units	OrigDataRate	OrigDataStartFrame	OrigNumFrames
120	120	12	19	mm	120	114	302
Frame#	Time	ThumbCMC			ThumbMCP			ThumbIP			ThumbTip			IndexMCP			IndexPIP			IndexTip			MiddleMCP			MiddlePIP			MiddleTip			RingMCP			RingPIP			RingTip			PinkyMCP			PinkyPIP			PinkyTip			BackHand1			BackHand2			BackHand3	
		X0	Y0	Z0	X1	Y1	Z1	X2	Y2	Z2	X3	Y3	Z3	X4	Y4	Z4	X5	Y5	Z5	X6	Y6	Z6	X7	Y7	Z7	X8	Y8	Z8	X9	Y9	Z9	X10	Y10	Z10	X11	Y11	Z11	X12	Y12	Z12	X13	Y13	Z13	X14	Y14	Z14	X15	Y15	Z15	X16	Y16	Z16	X17	Y17	Z17	X18	Y18	Z18	
113	0.941667	-183.178	68.7479	16.3919	-178.195	87.3472	1.18206	-173.189	94.6614	-23.1843	-166.678	97.6595	-45.187	-183.611	78.8923	-50.3401	-181.065	83.422	-75.3288	-179.22	87.9343	-96.9685	-183.515	60.6117	-66.9383	-181.987	69.9732	-81.5023	-182.065	73.6664	-110.867	-181.468	45.5257	-63.4819	-178.77	51.3282	-79.9863	-179.226	56.4107	-103.242	-177.079	24.6921	-52.2847	-176.383	31.6928	-71.9541	-177.68	38.4396	-90.2082	-193.803	33.0472	-21.172	-200.353	20.8437	2.78869	-199.552	51.6213	-0.682692	
114	0.95	-194.656	62.6896	18.3769	-193.407	85.6483	-4.00487	-187.954	91.836	-26.3696	-178.96	94.5198	-42.7687	-192.921	76.6016	-52.1606	-186.084	82.0806	-74.1451	-181.872	82.7801	-93.0352	-187.761	61.8423	-62.4325	-182.139	67.1857	-86.6736	-181.992	72.9636	-104.707	-180.232	41.9215	-64.4911	-176.547	49.0497	-78.3835	-175.026	55.4153	-98.5337	-174.546	25.6999	-48.2138	-172.924	33.6784	-66.4705	-171.808	36.2183	-86.111	-193.552	25.4028	-17.9323	-199.613	16.8387	-0.409079	-207.212	43.3287	-3.15305	
115	0.958333	-206.165	59.5286	13.4034	-207.238	80.9872	-1.68406	-201.138	90.9229	-27.7588	-192.09	93.8431	-44.4733	-200.4	73.8085	-52.8622	-191.737	81.1324	-75.084	-186.812	86.3752	-91.4434	-189.128	57.0771	-64.8698	-182.151	65.0381	-86.8501	-180.62	72.7864	-104.628	-180.986	43.8952	-58.5671	-175.258	52.4305	-82.2837	-171.522	59.4276	-98.5315	-172.046	27.2163	-51.5491	-167.503	32.8875	-66.4942	-168.235	42.6407	-85.6638	-193.631	23.5423	-21.4741	-202.035	14.9805	0.24561	-213.479	42.791	-5.59876	
116	0.966667	-216.751	54.2647	13.4539	-220.339	76.3703	-9.83027	-214.409	86.0536	-27.6805	-201.594	88.8902	-47.3333	-203.875	69.0909	-54.1042	-195.049	76.0544	-72.2024	-188.068	85.3446	-93.0958	-190.434	55.5175	-63.521	-185.5	67.5969	-84.1818	-176.705	72.8384	-105.79	-178.202	43.5373	-58.5613	-173.497	55.1528	-79.3068	-167.521	60.5316	-96.5294	-169.574	32.4572	-49.2143	-164.038	36.413	-63.7979	-162.091	43.8347	-82.8828	-196.598	22.9794	-22.698	-199.897	8.64177	-1.95539	-218.451	33.666	-7.46513	
117	0.975	-225.03	49.5621	9.87768	-231.768	71.1676	-13.728	-223.768	78.5259	-31.1783	-212.184	85.4759	-48.5755	-204.855	65.0911	-58.7628	-197.952	76.5315	-75.9356	-188.178	84.6843	-94.3805	-189.783	54.9184	-63.6046	-181.326	65.551	-81.2249	-173.827	73.4257	-101.82	-178.342	47.6691	-58.0892	-172.667	56.3101	-73.5292	-164.247	65.452	-94.1112	-164.479	32.9776	-44.5328	-160.084	42.5958	-61.6908	-159.309	50.624	-80.4834	-192.632	21.8108	-24.7373	-201.199	9.51928	1.62424	-215.677	27.4343	-13.0506	
118	0.983333	-227.418	41.7253	4.41892	-236.01	61.2514	-17.9242	-227.248	69.4965	-36.103	-220.898	83.518	-52.9824	-209.512	61.4733	-60.192	-199.906	73.547	-77.4076	-189.858	82.4643	-92.5239	-191.975	54.7419	-63.3865	-185.532	66.7801	-80.1016	-174.474	76.5415	-102.039	-173.266	47.1889	-59.5492	-168.365	56.1127	-72.8519	-162.023	67.8204	-93.0617	-163.517	35.8928	-42.8591	-158.882	44.0914	-57.1578	-158.308	53.917	-76.0332	-190.147	16.5579	-22.3587	-197.88	4.51544	0.0926903	-219.596	22.9521	-11.4453	
119	0.991667	-231.213	34.016	1.04383	-242.821	52.1187	-21.1407	-234.529	63.6157	-40.8199	-224.476	75.8655	-55.0433	-213.141	57.0344	-58.5138	-203.52	70.2579	-74.7138	-192.101	83.9978	-91.952	-189.538	53.6191	-64.2293	-183.028	68.7762	-81.6415	-174.021	81.0195	-101.259	-174.867	47.7716	-57.042	-170.975	60.8336	-71.4642	-161.918	71.2233	-85.8388	-164.344	39.0091	-41.6996	-158.071	48.7723	-55.2366	-157.639	59.6829	-73.0667	-188.728	15.975	-25.8407	-194.753	2.17177	-2.87906	-216.693	14.4646	-14.4814	
120	1	-237.312	25.7571	0.906682	-243.654	41.7261	-18.9292	-236.662	55.4634	-39.4502	-231.05	67.4497	-52.3809	-210.668	55.4856	-60.9184	-203.342	69.4711	-71.7362	-196.591	85.0518	-87.7475	-190.445	52.2547	-59.3085	-184.895	71.3792	-76.4724	-174.998	85.1175	-91.3227	-178.635	47.2467	-51.1508	-171.621	62.3581	-65.1111	-161.547	77.5795	-82.6097	-166.719	42.3985	-40.547	-161.872	53.8432	-54.6981	-157.388	59.6752	-66.0982	-188	12.8733	-20.8046	-194.039	-0.307407	-1.41954	-219.363	13.3794	-19.2733	
121	1.00833	-240.169	20.4416	-1.61086	-247.716	36.0274	-19.7925	-241.484	49.4914	-40.9572	-232.826	64.9397	-58.0792	-210.701	53.8635	-58.6201	-204.447	69.5015	-69.9539	-194.236	89.594	-84.1103	-191.304	56.1513	-60.6036	-189.868	71.0375	-71.7881	-176.478	87.8296	-86.2329	-175.237	48.7903	-48.8846	-168.931	65.0607	-62.4561	-163.787	80.884	-75.997	-165.6	40.2903	-35.4676	-160.834	52.8501	-48.3881	-156.667	64.0872	-62.1611	-189.72	14.2995	-23.0841	-194.774	-3.91135	-0.411849	-218.497	6.94204	-18.4756	
122	1.01667	-237.055	15.187	0.24874	-247.204	30.3087	-23.1782	-243.622	46.7687	-44.5028	-235.715	59.8884	-57.8228	-212.722	53.0607	-59.6206	-207.953	68.3153	-67.9824	-202.95	87.2473	-79.9448	-193.598	53.8952	-58.7464	-191.057	72.6642	-70.434	-183.813	93.3886	-85.2239	-176.773	50.6496	-49.2922	-171.72	66.926	-61.5075	-167.542	82.677	-71.181	-165.487	43.5672	-37.4918	-164.143	54.4234	-46.0645	-163.407	68.741	-60.3552	-186.997	12.7805	-23.3233	-194.85	-7.54732	-2.57133	-219.914	4.69276	-18.5036	
123	1.025	-241.939	11.3222	-4.70832	-249.081	27.343	-26.8476	-242.453	42.1974	-43.8158	-240.307	57.5881	-55.8636	-218.026	50.4779	-58.14	-208.087	70.846	-68.732	-204.216	93.0313	-78.3867	-197.233	53.9318	-57.7362	-190.28	73.7064	-67.451	-187.594	94.4125	-80.576	-182.809	47.9631	-46.6688	-175.446	68.4267	-58.6592	-172.883	87.0481	-70.0265	-170.087	40.7075	-32.8417	-168.052	57.2687	-45.3927	-162.101	69.2076	-56.4678	-188.766	8.30034	-19.6836	-197.333	-7.48783	-5.29712	-216.584	-0.166236	-17.8878	
124	1.03333	-239.786	8.10678	-5.20069	-247.374	23.9255	-24.2378	-245.753	40.5102	-44.7127	-240.801	54.9241	-54.6406	-215.571	49.5598	-55.3054	-209.018	69.2667	-63.2239	-205.133	92.4664	-71.9178	-199.859	53.169	-55.9194	-192.506	76.0314	-65.182	-189.803	96.687	-75.9993	-181.2	48.9705	-44.8642	-179.567	67.5999	-55.2564	-178.173	90.622	-66.604	-168.377	41.9399	-30.7909	-168.61	60.2725	-43.2278	-165.964	75.6713	-54.6532	-191.292	8.97346	-23.882	-194.588	-11.7709	-3.72222	-217.338	-0.888637	-17.7142	
